<?xml version="1.0" encoding="UTF-8"?>
<svg id="Layer_1" data-name="Layer 1" xmlns="http://www.w3.org/2000/svg" viewBox="0 0 26 26">
  <defs>
    <style>
      .cls-1 {
        fill-rule: evenodd;
      }
    </style>
  </defs>
  <path class="cls-1" d="M19.58,23.89c-.05.09-.14.14-.24.14h-5.08c-.1,0-.19-.05-.24-.14l-2.86-4.83c-.05-.09-.05-.2,0-.29l2.86-4.83c.05-.09.14-.14.24-.14h5.08c.1,0,.19.05.24.14l2.86,4.83c.05.09.05.2,0,.29l-2.86,4.83ZM16.32,19.2h-4.42l2.52,4.26h4.42l-2.52-4.26Z"/>
  <path class="cls-1" d="M10.09,18.29c-.05.09-.14.14-.24.14h-5.08c-.1,0-.19-.05-.24-.14l-2.86-4.83c-.05-.09-.05-.2,0-.29l2.86-4.83c.05-.09.14-.14.24-.14h5.08c.1,0,.19.05.24.14l2.86,4.83c.05.09.05.2,0,.29l-2.86,4.83ZM6.82,13.6H2.4l2.52,4.26h4.42l-2.52-4.26Z"/>
  <path class="cls-1" d="M19.96,2.85c.1,0,.19.06.24.15l2.48,4.43c.05.09.05.19,0,.28l-2.82,4.85c-.05.09-.15.14-.25.14l-5.61-.14c-.1,0-.19-.06-.24-.15l-2.48-4.43c-.05-.09-.05-.19,0-.28l2.82-4.85c.05-.09.15-.14.25-.14l5.61.14ZM17.46,7.99l2.16,3.86,2.49-4.28-2.16-3.86-2.49,4.28Z"/>
</svg>