<?xml version="1.0" encoding="UTF-8"?>
<svg id="Layer_1" data-name="Layer 1" xmlns="http://www.w3.org/2000/svg" viewBox="0 0 26 26">
  <g>
    <rect x="2.16" y="2.54" width=".63" height="10.62"/>
    <rect x="3.92" y="2.54" width=".63" height="10.62"/>
    <rect x="5.69" y="2.54" width=".63" height="10.62"/>
    <rect x="7.46" y="2.54" width=".63" height="10.62"/>
    <rect x="9.23" y="2.54" width=".63" height="10.62"/>
    <rect x="10.99" y="2.54" width=".63" height="10.62"/>
    <rect x="12.76" y="2.54" width=".63" height="10.62"/>
  </g>
  <g>
    <rect x="12.76" y="13" width=".63" height="10.98"/>
    <rect x="14.53" y="13.36" width=".63" height="10.62"/>
    <rect x="16.3" y="13.36" width=".63" height="10.62"/>
    <rect x="18.06" y="13.36" width=".63" height="10.62"/>
    <rect x="19.83" y="13.36" width=".63" height="10.62"/>
    <rect x="21.6" y="13.36" width=".63" height="10.62"/>
    <rect x="23.37" y="13.36" width=".63" height="10.62"/>
  </g>
  <rect x="14.45" y="2.54" width="9.61" height="9.51"/>
  <rect x="1.94" y="14.47" width="9.61" height="9.51"/>
</svg>