<?xml version="1.0" encoding="UTF-8"?>
<svg id="Layer_1" data-name="Layer 1" xmlns="http://www.w3.org/2000/svg" viewBox="0 0 26 26">
  <defs>
    <style>
      .cls-1 {
        fill: none;
        stroke-width: .26px;
      }

      .cls-1, .cls-2 {
        stroke: #000;
      }

      .cls-2 {
        stroke-width: .44px;
      }
    </style>
  </defs>
  <g>
    <path class="cls-1" d="M7.51,15.35L11.88,3.87l3.31-1.42,8.67,3.13-.43,1.88-1.56-.21.64,3.8-.64,5.86-.82,2.56-1.39.82-1.17,2.84h-7.36l-8.74-5.86.28-.36.53-4.41,1.24-.43,3.06,3.27Z"/>
    <path class="cls-1" d="M11.63,4.51l-3.34.89-1.67,1.28-2.17,5.37"/>
    <path class="cls-1" d="M21.79,4.9l-.82,3.09v2.35M20.98,10.34l-.78,2.1.21,2.27M20.98,10.34l1.56.71M19.73,20.11l.89-3.13-.21-2.27M19.59,4.01l-1,3.23.08,2.7M18.81,14.57l-.39,1.74.33,3.13M18.81,14.57l-.13-4.62M18.81,14.57l-3.87-.96M18.99,21.68l-.24-2.24M15.25,2.63l-1.31,1.99,1,8.99M14.93,13.61l.32,5.22v.14M14.93,13.61l-4.44-1.17h-1.81M15.25,23.03l.21-1.81-.2-2.24M13.26,3.41l-1.14,1,.28,2.84M12.41,7.25l-.28,3.09,1.14,5.22-.25,2.74M12.41,7.25l6.26,2.7M12.41,7.25l-1.6-.25M13.02,18.3l.25,4.73M13.02,18.3l-3.91-1.14-4.34-.68-1.88-.46M6.76,20.11l.39-1.81-.18-3.27M23.36,7.25l-6.33-2.63-4.9-.78M21.97,15.03l-1.56-.32M21.28,18.26l-2.53,1.17M18.68,18.83l-3.42.14"/>
  </g>
  <circle class="cls-2" cx="4.49" cy="12.03" r=".32"/>
  <circle class="cls-2" cx="2.5" cy="17.15" r=".32"/>
  <circle class="cls-2" cx="6.99" cy="14.96" r=".32"/>
  <circle class="cls-2" cx="12.97" cy="18.28" r=".32"/>
  <circle class="cls-2" cx="12.71" cy="13.09" r=".32"/>
  <circle class="cls-2" cx="14.92" cy="13.57" r=".32"/>
  <circle class="cls-2" cx="18.68" cy="9.98" r=".32"/>
  <circle class="cls-2" cx="19.21" cy="5.51" r=".32"/>
  <circle class="cls-2" cx="13.21" cy="3.36" r=".32"/>
  <circle class="cls-2" cx="12.42" cy="7.22" r=".32"/>
  <circle class="cls-2" cx="15.32" cy="18.96" r=".32"/>
  <circle class="cls-2" cx="21.37" cy="18.27" r=".32"/>
  <circle class="cls-2" cx="22.52" cy="11.07" r=".32"/>
  <circle class="cls-2" cx="23.44" cy="7.35" r=".32"/>
  <circle class="cls-2" cx="19.06" cy="21.72" r=".32"/>
</svg>