<?xml version="1.0" encoding="UTF-8"?>
<svg id="Layer_1" data-name="Layer 1" xmlns="http://www.w3.org/2000/svg" viewBox="0 0 24.73 23.65">
  <defs>
    <style>
      .cls-1 {
        fill: none;
        stroke: #000;
        stroke-width: .1px;
      }
    </style>
  </defs>
  <g>
    <path class="cls-1" d="M6.06,14.74L11.04,1.67,14.8.05l9.87,3.56-.49,2.14-1.78-.24.73,4.33-.73,6.67-.93,2.91-1.58.93-1.34,3.24h-8.37L.24,16.92l.32-.4.61-5.02,1.42-.49,3.48,3.72Z"/>
    <path class="cls-1" d="M10.75,2.4l-3.8,1.01-1.9,1.46-2.47,6.11"/>
    <path class="cls-1" d="M22.32,2.84l-.93,3.52v2.67M21.39,9.03l-.89,2.39.24,2.59M21.39,9.03l1.78.81M19.98,20.16l1.01-3.56-.24-2.59M19.81,1.83l-1.13,3.68.09,3.07M18.92,13.85l-.44,1.98.38,3.56M18.92,13.85l-.15-5.26M18.92,13.85l-4.41-1.09M19.13,21.94l-.27-2.55M14.88.26l-1.5,2.27,1.13,10.23M14.52,12.76l.36,5.95v.16M14.52,12.76l-5.06-1.33h-2.06M14.88,23.48l.24-2.06-.23-2.55M12.61,1.15l-1.29,1.13.32,3.24M11.64,5.51l-.32,3.52,1.29,5.95-.28,3.11M11.64,5.51l7.13,3.07M11.64,5.51l-1.82-.28M12.33,18.1l.28,5.38M12.33,18.1l-4.45-1.29-4.94-.77-2.14-.53M5.21,20.16l.44-2.06-.2-3.72M24.1,5.51l-7.2-2.99-5.58-.89M22.53,14.37l-1.78-.36M21.74,18.05l-2.88,1.34M18.78,18.7l-3.89.16"/>
  </g>
  <circle cx="2.63" cy="10.96" r=".36"/>
  <circle cx=".36" cy="16.79" r=".36"/>
  <circle cx="5.48" cy="14.3" r=".36"/>
  <circle cx="12.28" cy="18.08" r=".36"/>
  <circle cx="11.99" cy="12.16" r=".36"/>
  <circle cx="14.5" cy="12.71" r=".36"/>
  <circle cx="18.78" cy="8.63" r=".36"/>
  <circle cx="19.38" cy="3.53" r=".36"/>
  <circle cx="12.55" cy="1.09" r=".36"/>
  <circle cx="11.65" cy="5.49" r=".36"/>
  <circle cx="14.96" cy="18.84" r=".36"/>
  <circle cx="21.84" cy="18.06" r=".36"/>
  <circle cx="23.15" cy="9.87" r=".36"/>
  <circle cx="24.2" cy="5.63" r=".36"/>
  <circle cx="19.22" cy="21.98" r=".36"/>
</svg>